<svg xmlns="http://www.w3.org/2000/svg" viewBox="0 0 320 340" font-family="'Jua','Apple SD Gothic Neo','Malgun Gothic',sans-serif">
  <rect width="320" height="340" rx="26" fill="#d9faf0"/>
  <g fill="#ffd45e"><rect x="30" y="34" width="14" height="14" rx="3" transform="rotate(20 37 41)"/><rect x="270" y="50" width="13" height="13" rx="3" transform="rotate(-15 276 56)"/></g>
  <g fill="#ff8fb0"><rect x="250" y="30" width="12" height="12" rx="3" transform="rotate(25 256 36)"/><rect x="46" y="70" width="11" height="11" rx="3" transform="rotate(-20 51 75)"/></g>
  <text x="40" y="120" font-size="26" fill="#16c2a8">✦</text>
  <text x="262" y="150" font-size="30" fill="#ffce4d">✦</text>
  <circle cx="160" cy="140" r="74" fill="#ffe0bd"/>
  <ellipse cx="123" cy="160" rx="15" ry="10" fill="#ffb3c4" opacity=".8"/>
  <ellipse cx="197" cy="160" rx="15" ry="10" fill="#ffb3c4" opacity=".8"/>
  <text x="123" y="142" font-size="40" fill="#f4a300" text-anchor="middle">★</text>
  <text x="197" y="142" font-size="40" fill="#f4a300" text-anchor="middle">★</text>
  <path d="M126 158 Q160 208 194 158 Q160 178 126 158 Z" fill="#9c3a3a"/>
  <path d="M150 176 Q160 188 170 176 Z" fill="#ff7a8a"/>
  <rect x="34" y="262" width="252" height="48" rx="24" fill="#16c2a8"/>
  <text x="160" y="294" font-size="25" fill="#fff" text-anchor="middle">완전 럭키비키 🍀</text>
</svg>
